<svg width="38" height="38" viewBox="0 0 38 38" fill="none" xmlns="http://www.w3.org/2000/svg">
<g filter="url(#filter0_dd_1567_8258)">
<path d="M3 18C3 9.16344 10.1634 2 19 2C27.8366 2 35 9.16344 35 18C35 26.8366 27.8366 34 19 34C10.1634 34 3 26.8366 3 18Z" fill="#F36969"/>
<path d="M19 3C27.2843 3 34 9.71573 34 18C34 26.2843 27.2843 33 19 33C10.7157 33 4 26.2843 4 18C4 9.71573 10.7157 3 19 3Z" stroke="white" stroke-width="2"/>
<path d="M27 26H11V10H27V26Z" stroke="#E5E7EB"/>
<path d="M27 26H11V10H27V26Z" stroke="#E5E7EB"/>
<path d="M15.6594 12.025L15.3344 13H13C11.8969 13 11 13.8969 11 15V23C11 24.1031 11.8969 25 13 25H25C26.1031 25 27 24.1031 27 23V15C27 13.8969 26.1031 13 25 13H22.6656L22.3406 12.025C22.1375 11.4125 21.5656 11 20.9187 11H17.0813C16.4344 11 15.8625 11.4125 15.6594 12.025ZM19 16C19.7956 16 20.5587 16.3161 21.1213 16.8787C21.6839 17.4413 22 18.2044 22 19C22 19.7956 21.6839 20.5587 21.1213 21.1213C20.5587 21.6839 19.7956 22 19 22C18.2044 22 17.4413 21.6839 16.8787 21.1213C16.3161 20.5587 16 19.7956 16 19C16 18.2044 16.3161 17.4413 16.8787 16.8787C17.4413 16.3161 18.2044 16 19 16Z" fill="white"/>
</g>
<defs>
<filter id="filter0_dd_1567_8258" x="0" y="0" width="38" height="38" filterUnits="userSpaceOnUse" color-interpolation-filters="sRGB">
<feFlood flood-opacity="0" result="BackgroundImageFix"/>
<feColorMatrix in="SourceAlpha" type="matrix" values="0 0 0 0 0 0 0 0 0 0 0 0 0 0 0 0 0 0 127 0" result="hardAlpha"/>
<feOffset dy="1"/>
<feGaussianBlur stdDeviation="1.5"/>
<feColorMatrix type="matrix" values="0 0 0 0 0 0 0 0 0 0 0 0 0 0 0 0 0 0 0.1 0"/>
<feBlend mode="normal" in2="BackgroundImageFix" result="effect1_dropShadow_1567_8258"/>
<feColorMatrix in="SourceAlpha" type="matrix" values="0 0 0 0 0 0 0 0 0 0 0 0 0 0 0 0 0 0 127 0" result="hardAlpha"/>
<feOffset dy="1"/>
<feGaussianBlur stdDeviation="1"/>
<feColorMatrix type="matrix" values="0 0 0 0 0 0 0 0 0 0 0 0 0 0 0 0 0 0 0.1 0"/>
<feBlend mode="normal" in2="effect1_dropShadow_1567_8258" result="effect2_dropShadow_1567_8258"/>
<feBlend mode="normal" in="SourceGraphic" in2="effect2_dropShadow_1567_8258" result="shape"/>
</filter>
</defs>
</svg>
