<svg width="25" height="25" viewBox="0 0 25 25" fill="none" xmlns="http://www.w3.org/2000/svg">
<circle cx="12.5" cy="12.5" r="12" fill="white" stroke="#E9E9F2"/>
<path fill-rule="evenodd" clip-rule="evenodd" d="M12.4992 7.56457C13.1843 6.87455 14.0684 6.62879 14.9162 6.64106C16.9541 6.67055 19.0108 8.33352 19.0108 10.7426C19.0108 13.0598 17.5287 14.989 16.0628 16.3005C15.3211 16.9641 14.5604 17.491 13.9426 17.8538C13.6338 18.0351 13.3556 18.1785 13.1286 18.2784C13.0154 18.3282 12.9093 18.3697 12.8147 18.3997C12.7325 18.4258 12.6165 18.4574 12.5002 18.4574C12.3839 18.4574 12.268 18.4258 12.1857 18.3997C12.0912 18.3697 11.985 18.3282 11.8719 18.2784C11.6449 18.1785 11.3666 18.0351 11.0579 17.8538C10.4401 17.491 9.67938 16.9641 8.93766 16.3005C7.47175 14.989 5.98962 13.0598 5.98962 10.7426C5.98962 8.33922 8.04162 6.64101 10.0913 6.64101C10.9162 6.64101 11.8087 6.8759 12.4992 7.56457ZM14.9021 7.61752C14.1223 7.60624 13.3956 7.87098 12.9065 8.60458C12.8159 8.74041 12.6635 8.822 12.5002 8.822C12.337 8.822 12.1845 8.74042 12.094 8.60458C11.6078 7.87541 10.8679 7.61757 10.0913 7.61757C8.52759 7.61757 6.96619 8.93043 6.96619 10.7426C6.96619 12.6408 8.19411 14.3249 9.58881 15.5727C10.2774 16.1888 10.9846 16.6782 11.5524 17.0117C11.8366 17.1786 12.0806 17.3033 12.2652 17.3845C12.3579 17.4253 12.43 17.4526 12.481 17.4688C12.4883 17.4711 12.4947 17.4731 12.5002 17.4747C12.5058 17.4731 12.5122 17.4711 12.5195 17.4688C12.5705 17.4526 12.6426 17.4253 12.7353 17.3845C12.9199 17.3033 13.1639 17.1786 13.448 17.0117C14.0159 16.6782 14.7231 16.1888 15.4117 15.5727C16.8064 14.3249 18.0343 12.6408 18.0343 10.7426C18.0343 8.93612 16.4777 7.64032 14.9021 7.61752Z" fill="#F36969"/>
</svg>
