<svg width="17" height="23" viewBox="0 0 17 23" fill="none" xmlns="http://www.w3.org/2000/svg">
<g clip-path="url(#clip0_1567_8315)">
<g clip-path="url(#clip1_1567_8315)">
<path d="M9.54922 21.95C11.8203 19.1914 17 12.5055 17 8.75C17 4.19531 13.1927 0.5 8.5 0.5C3.80729 0.5 0 4.19531 0 8.75C0 12.5055 5.17969 19.1914 7.45078 21.95C7.99531 22.6074 9.00469 22.6074 9.54922 21.95ZM8.5 6C9.25145 6 9.97212 6.28973 10.5035 6.80546C11.0348 7.32118 11.3333 8.02065 11.3333 8.75C11.3333 9.47935 11.0348 10.1788 10.5035 10.6945C9.97212 11.2103 9.25145 11.5 8.5 11.5C7.74855 11.5 7.02788 11.2103 6.49653 10.6945C5.96518 10.1788 5.66667 9.47935 5.66667 8.75C5.66667 8.02065 5.96518 7.32118 6.49653 6.80546C7.02788 6.28973 7.74855 6 8.5 6Z" fill="#535353"/>
</g>
</g>
<defs>
<clipPath id="clip0_1567_8315">
<rect width="17" height="23" fill="white"/>
</clipPath>
<clipPath id="clip1_1567_8315">
<path d="M0 0.5H17V22.5H0V0.5Z" fill="white"/>
</clipPath>
</defs>
</svg>
