<svg width="49" height="48" viewBox="0 0 49 48" fill="none" xmlns="http://www.w3.org/2000/svg">
<path d="M24.9844 0C38.2392 0 48.9844 10.7452 48.9844 24C48.9844 37.2548 38.2392 48 24.9844 48C11.7295 48 0.984375 37.2548 0.984375 24C0.984375 10.7452 11.7295 0 24.9844 0Z" fill="#E0F7FA"/>
<path d="M24.9844 0C38.2392 0 48.9844 10.7452 48.9844 24C48.9844 37.2548 38.2392 48 24.9844 48C11.7295 48 0.984375 37.2548 0.984375 24C0.984375 10.7452 11.7295 0 24.9844 0Z" stroke="#E5E7EB"/>
<path d="M33.7344 34H16.2344V14H33.7344V34Z" stroke="#E5E7EB"/>
<g clip-path="url(#clip0_461_5822)">
<path d="M24.9844 24C23.6583 24 22.3865 23.4732 21.4488 22.5355C20.5112 21.5979 19.9844 20.3261 19.9844 19C19.9844 17.6739 20.5112 16.4021 21.4488 15.4645C22.3865 14.5268 23.6583 14 24.9844 14C26.3105 14 27.5822 14.5268 28.5199 15.4645C29.4576 16.4021 29.9844 17.6739 29.9844 19C29.9844 20.3261 29.4576 21.5979 28.5199 22.5355C27.5822 23.4732 26.3105 24 24.9844 24ZM24.4023 28.0312L23.6758 26.8203C23.4258 26.4023 23.7266 25.875 24.2109 25.875H24.9844H25.7539C26.2383 25.875 26.5391 26.4062 26.2891 26.8203L25.5625 28.0312L26.8672 32.8711L28.2734 27.1328C28.3516 26.8164 28.6562 26.6094 28.9727 26.6914C31.7109 27.3789 33.7344 29.8555 33.7344 32.8008C33.7344 33.4648 33.1953 34 32.5352 34H27.3867C27.3047 34 27.2305 33.9844 27.1602 33.957L27.1719 34H22.7969L22.8086 33.957C22.7383 33.9844 22.6602 34 22.582 34H17.4336C16.7734 34 16.2344 33.4609 16.2344 32.8008C16.2344 29.8516 18.2617 27.375 20.9961 26.6914C21.3125 26.6133 21.6172 26.8203 21.6953 27.1328L23.1016 32.8711L24.4062 28.0312H24.4023Z" fill="#00897B"/>
</g>
<defs>
<clipPath id="clip0_461_5822">
<path d="M16.2344 14H33.7344V34H16.2344V14Z" fill="white"/>
</clipPath>
</defs>
</svg>
