<svg width="49" height="49" viewBox="0 0 49 49" fill="none" xmlns="http://www.w3.org/2000/svg">
<path d="M24.9844 0.5C38.2392 0.5 48.9844 11.2452 48.9844 24.5C48.9844 37.7548 38.2392 48.5 24.9844 48.5C11.7295 48.5 0.984375 37.7548 0.984375 24.5C0.984375 11.2452 11.7295 0.5 24.9844 0.5Z" fill="#FFF8E1"/>
<path d="M24.9844 0.5C38.2392 0.5 48.9844 11.2452 48.9844 24.5C48.9844 37.7548 38.2392 48.5 24.9844 48.5C11.7295 48.5 0.984375 37.7548 0.984375 24.5C0.984375 11.2452 11.7295 0.5 24.9844 0.5Z" stroke="#E5E7EB"/>
<path d="M24.9998 34.3125C26.1475 34.3125 27.0778 33.7638 27.0778 33.087C27.0778 32.4102 26.1475 31.8616 24.9998 31.8616C23.8522 31.8616 22.9219 32.4102 22.9219 33.087C22.9219 33.7638 23.8522 34.3125 24.9998 34.3125Z" fill="#424242"/>
<path d="M24.9997 13.6875C21.3766 13.6875 18.4375 16.3808 18.4375 19.7014C18.4375 20.5677 18.6987 21.4941 19.082 22.3105C19.62 23.4586 20.2061 24.3077 20.378 24.6205C20.8558 25.4902 20.787 26.4062 20.9194 26.9803C21.1686 28.0528 21.9145 28.4412 24.998 28.4412C28.0814 28.4412 28.7448 28.0717 29.0216 27.0834C29.2106 26.4114 29.0267 25.6775 29.5028 24.8095C29.6747 24.4967 30.3742 23.4603 30.9139 22.3105C31.2972 21.4941 31.5584 20.5677 31.5584 19.7014C31.5619 16.3808 28.6228 13.6875 24.9997 13.6875Z" fill="#FFD600"/>
<path d="M24.9995 28.5702C27.0821 28.5702 28.7704 28.227 28.7704 27.8036C28.7704 27.3802 27.0821 27.037 24.9995 27.037C22.9168 27.037 21.2285 27.3802 21.2285 27.8036C21.2285 28.227 22.9168 28.5702 24.9995 28.5702Z" fill="#B26500"/>
<path d="M24.9995 28.5702C27.0821 28.5702 28.7704 28.227 28.7704 27.8036C28.7704 27.3802 27.0821 27.037 24.9995 27.037C22.9168 27.037 21.2285 27.3802 21.2285 27.8036C21.2285 28.227 22.9168 28.5702 24.9995 28.5702Z" fill="#B26500"/>
<path d="M25.0002 28.1576C26.5181 28.1576 27.7485 27.9991 27.7485 27.8036C27.7485 27.608 26.5181 27.4495 25.0002 27.4495C23.4824 27.4495 22.252 27.608 22.252 27.8036C22.252 27.9991 23.4824 28.1576 25.0002 28.1576Z" fill="#FFA000"/>
<path d="M23.1606 22.7574C23.054 23.0255 22.7773 23.5772 22.9217 23.8247C23.2568 24.4005 24.0561 24.6068 24.0561 25.1361C24.0561 25.9439 23.4682 28.5616 23.4682 28.5616M26.7236 22.6611C26.7236 22.6611 27.1086 23.4861 26.9453 23.8557C26.8232 24.1307 26.0893 24.5741 25.9948 24.648C25.5565 24.9918 26.1392 28.5633 26.1392 28.5633" stroke="#B26500" stroke-width="0.25" stroke-miterlimit="10"/>
<path d="M23.1608 22.7574C23.752 21.5886 24.0562 18.9211 23.3051 19.0569C22.0384 19.2855 23.599 23.6683 24.3673 23.1647C25.1356 22.6611 26.0878 19.0655 24.919 19.0517C23.7503 19.038 24.9981 23.6339 25.7922 23.1234C26.4195 22.7195 27.9509 19.0569 26.6928 19.0569C25.622 19.0569 26.7254 22.6611 26.7254 22.6611" stroke="white" stroke-width="0.25" stroke-miterlimit="10"/>
<path d="M28.762 27.9634C28.762 27.9634 27.772 28.4413 24.9997 28.4413C22.2273 28.4413 21.2373 27.9634 21.2373 27.9634C21.2373 27.9634 21.1754 28.8469 21.38 29.2473C21.6257 29.7286 21.8148 29.8953 21.8148 29.8953L21.9179 30.3852L21.8767 30.5141C21.8234 30.6825 21.8612 30.8681 21.9798 31.0005L22.0692 31.1002L22.1689 31.5711L22.1345 31.6656C22.0692 31.8461 22.1139 32.0472 22.2479 32.1847L22.3132 32.2517L22.394 32.6367C22.394 32.6367 22.8031 33.5098 24.9997 33.5098C27.1962 33.5098 27.6053 32.6367 27.6053 32.6367L27.6122 32.6041L27.6568 32.5594C27.7462 32.4717 27.7754 32.3411 27.7325 32.2242L27.7067 32.1572L27.8132 31.6484L28.0006 31.4508C28.0934 31.3528 28.114 31.2084 28.0539 31.0881L27.9679 30.918L28.0762 30.4075L28.145 30.3542C28.2464 30.2425 28.2481 30.0741 28.2034 29.9589C28.169 29.8678 28.1965 29.7647 28.267 29.6977C28.3753 29.5945 28.5145 29.4381 28.6176 29.2439C28.829 28.8503 28.762 27.9634 28.762 27.9634Z" fill="#82AEC0"/>
<path d="M21.8145 29.8953L21.9073 30.3886C22.9076 30.3834 24.243 30.4333 26.8057 30.0259C27.268 29.9211 27.8232 29.7131 27.2096 29.7991C27.2096 29.7973 24.8566 30.0225 21.8145 29.8953ZM22.1582 31.5745C23.2651 31.5556 25.527 31.4456 27.9573 30.918L28.0655 30.4075C25.5235 30.985 23.1327 31.0881 22.0585 31.1019L22.1582 31.5745ZM27.8026 31.6467C25.5527 32.1348 23.4473 32.2603 22.3077 32.2878L22.3816 32.6384C22.3816 32.6384 22.4177 33.7264 24.9873 33.7264C27.5568 33.7264 27.5929 32.6384 27.5929 32.6384C27.5929 32.6384 26.4963 32.9513 25.1471 32.7983C25.1329 32.7984 25.1188 32.7957 25.1056 32.7904C25.0924 32.785 25.0804 32.7772 25.0703 32.7672C25.0498 32.747 25.0382 32.7196 25.038 32.6909C25.0377 32.6621 25.0489 32.6345 25.0691 32.614C25.0892 32.5936 25.1167 32.582 25.1454 32.5817C25.9515 32.4752 26.914 32.317 27.696 32.1555L27.8026 31.6467Z" fill="#2F7889"/>
<path d="M21.25 27.9634C21.25 27.9634 22.3603 28.4413 24.99 28.4413C27.6197 28.4413 28.7506 27.9634 28.7506 27.9634" stroke="#82AEC0" stroke-width="0.499625" stroke-miterlimit="10" stroke-linecap="round"/>
<path d="M22.5738 14.7738C23.2458 14.6088 23.9488 14.6913 24.4301 15.2756C24.5658 15.4406 24.6707 15.6366 24.6947 15.8497C24.7429 16.2605 24.4885 16.6489 24.186 16.9342C23.3232 17.7489 22.0977 18.1442 21.5408 19.2683C21.4102 19.5313 21.3071 19.8148 21.1077 20.0297C20.9083 20.2445 20.5766 20.3752 20.3171 20.2377C20.1796 20.1655 20.0851 20.0297 20.0077 19.8939C19.5196 19.0242 19.5557 17.9156 19.9854 17.015C20.458 16.0284 21.4944 15.0384 22.5738 14.7738Z" fill="#FFFF8D"/>
<path d="M21.9833 28.8005C21.8321 28.7317 21.8922 28.5049 22.0572 28.5169C22.6107 28.5599 23.5526 28.6132 24.7986 28.6132C26.1118 28.6132 27.2668 28.5152 27.9405 28.443C28.1072 28.4258 28.1708 28.6544 28.0179 28.7249C27.4988 28.9689 26.5483 29.2474 24.919 29.2474C23.3291 29.2474 22.4526 29.0119 21.9833 28.8005Z" fill="#FFD600"/>
<path d="M22.9265 30.5364C22.8113 30.5776 22.6927 30.6344 22.6343 30.7409C22.6137 30.7805 22.6016 30.8252 22.6102 30.8698C22.624 30.9352 22.6841 30.9816 22.7443 31.0108C22.8646 31.0692 23.0004 31.0847 23.1327 31.0864C23.406 31.0898 23.6776 31.0383 23.9474 30.9867C24.0282 30.9712 24.1107 30.9558 24.1829 30.9162C24.2551 30.8767 24.3169 30.8097 24.329 30.7289C24.3462 30.6206 24.2688 30.5158 24.1743 30.4642C23.8477 30.2837 23.2565 30.4178 22.9265 30.5364ZM23.1826 31.6691C23.0674 31.7103 22.9488 31.767 22.8904 31.8736C22.8698 31.9131 22.8577 31.9578 22.8663 32.0025C22.8801 32.0678 22.9402 32.1142 23.0004 32.1434C23.1207 32.2019 23.2565 32.2173 23.3888 32.2191C23.6621 32.2225 23.9337 32.1709 24.2035 32.1194C24.2843 32.1039 24.3668 32.0884 24.439 32.0489C24.5112 32.0094 24.573 31.9423 24.5851 31.8616C24.6023 31.7533 24.5249 31.6484 24.4304 31.5969C24.1038 31.4181 23.5109 31.5522 23.1826 31.6691Z" fill="#94D1E0"/>
<path d="M22.5949 27.4719C22.7513 27.4873 22.9163 27.4736 23.0486 27.3894C23.181 27.3052 23.2652 27.1333 23.2119 26.9855C23.1844 26.9081 23.1243 26.8462 23.0658 26.7878C22.9369 26.6606 22.808 26.5334 22.6808 26.4062C22.5382 26.2636 22.3955 26.1227 22.2408 25.9937C22.0019 25.7944 21.6805 25.607 21.366 25.7531C21.0979 25.8769 21.0343 26.1209 21.1529 26.377C21.4055 26.915 21.9933 27.41 22.5949 27.4719Z" fill="#FFFF8D"/>
</svg>
