<svg width="28" height="28" viewBox="0 0 28 28" fill="none" xmlns="http://www.w3.org/2000/svg">
<rect x="0.5" y="0.5" width="27" height="27" rx="13.5" fill="white"/>
<rect x="0.5" y="0.5" width="27" height="27" rx="13.5" stroke="#E9E9F2"/>
<mask id="mask0_1232_10986" style="mask-type:luminance" maskUnits="userSpaceOnUse" x="7" y="7" width="15" height="14">
<path d="M21.7 7H7.7V21H21.7V7Z" fill="white"/>
</mask>
<g mask="url(#mask0_1232_10986)">
<path d="M10.8558 19.6872C10.2025 19.6872 9.78831 19.4655 9.52581 19.203C9.01247 18.6897 8.65081 17.5989 9.80581 15.283L10.3133 14.2739C10.3775 14.1397 10.3775 13.8597 10.3133 13.7255L9.80581 12.7163C8.64497 10.4005 9.01247 9.30384 9.52581 8.79634C10.0333 8.28301 11.13 7.91551 13.44 9.07634L18.4333 11.573C19.6758 12.1913 20.3583 13.0547 20.3583 13.9997C20.3583 14.9447 19.6758 15.808 18.4391 16.4264L13.4458 18.923C12.3141 19.4889 11.4741 19.6872 10.8558 19.6872ZM10.8558 9.18718C10.5408 9.18718 10.2958 9.26301 10.1441 9.41468C9.71831 9.83468 9.88747 10.9255 10.5875 12.3197L11.095 13.3347C11.2816 13.7139 11.2816 14.2855 11.095 14.6647L10.5875 15.6739C9.88747 17.0739 9.71831 18.1589 10.1441 18.5789C10.5641 19.0047 11.655 18.8355 13.055 18.1355L18.0483 15.6389C18.9641 15.1839 19.4833 14.583 19.4833 13.9939C19.4833 13.4047 18.9583 12.8038 18.0424 12.3488L13.0491 9.85801C12.1625 9.41468 11.3983 9.18718 10.8558 9.18718Z" fill="#F36969"/>
<path d="M14.0233 14.4375H10.8733C10.6341 14.4375 10.4358 14.2392 10.4358 14C10.4358 13.7608 10.6341 13.5625 10.8733 13.5625H14.0233C14.2624 13.5625 14.4608 13.7608 14.4608 14C14.4608 14.2392 14.2624 14.4375 14.0233 14.4375Z" fill="#F36969"/>
</g>
</svg>
