<svg width="24" height="24" viewBox="0 0 24 24" fill="none" xmlns="http://www.w3.org/2000/svg">
<g clip-path="url(#clip0_1567_8331)">
<g clip-path="url(#clip1_1567_8331)">
<path d="M2 20.5V12.5H10V20.5H2ZM5.5 10L11 1L16.5 10H5.5ZM21.575 22.95L18.925 20.3C18.575 20.5333 18.196 20.7083 17.788 20.825C17.38 20.9417 16.9507 21 16.5 21C15.25 21 14.1877 20.5627 13.313 19.688C12.4383 18.8133 12.0007 17.7507 12 16.5C11.9993 15.2493 12.437 14.187 13.313 13.313C14.189 12.439 15.2513 12.0013 16.5 12C17.7487 11.9987 18.8113 12.4363 19.688 13.313C20.5647 14.1897 21.002 15.252 21 16.5C21 16.9333 20.9417 17.3543 20.825 17.763C20.7083 18.1717 20.5417 18.5507 20.325 18.9L22.975 21.55L21.575 22.95ZM16.5 19C17.2 19 17.7917 18.7583 18.275 18.275C18.7583 17.7917 19 17.2 19 16.5C19 15.8 18.7583 15.2083 18.275 14.725C17.7917 14.2417 17.2 14 16.5 14C15.8 14 15.2083 14.2417 14.725 14.725C14.2417 15.2083 14 15.8 14 16.5C14 17.2 14.2417 17.7917 14.725 18.275C15.2083 18.7583 15.8 19 16.5 19Z" fill="#535353"/>
</g>
</g>
<defs>
<clipPath id="clip0_1567_8331">
<rect width="24" height="24" fill="white"/>
</clipPath>
<clipPath id="clip1_1567_8331">
<path d="M0 0H24V24H0V0Z" fill="white"/>
</clipPath>
</defs>
</svg>
