<svg width="20" height="20" viewBox="0 0 20 20" fill="none" xmlns="http://www.w3.org/2000/svg">
<g clip-path="url(#clip0_1232_11412)">
<mask id="mask0_1232_11412" style="mask-type:luminance" maskUnits="userSpaceOnUse" x="0" y="0" width="20" height="20">
<path d="M20 0H0V20H20V0Z" fill="white"/>
</mask>
<g mask="url(#mask0_1232_11412)">
<path d="M9.99992 13.6083C8.00827 13.6083 6.3916 11.9916 6.3916 9.99992C6.3916 8.00827 8.00827 6.3916 9.99992 6.3916C11.9916 6.3916 13.6083 8.00827 13.6083 9.99992C13.6083 11.9916 11.9916 13.6083 9.99992 13.6083ZM9.99992 7.6416C8.69992 7.6416 7.6416 8.69992 7.6416 9.99992C7.6416 11.2999 8.69992 12.3583 9.99992 12.3583C11.2999 12.3583 12.3583 11.2999 12.3583 9.99992C12.3583 8.69992 11.2999 7.6416 9.99992 7.6416Z" fill="#F36969"/>
<path d="M10 17.5172C6.86669 17.5172 3.90836 15.6839 1.87502 12.5006C0.991691 11.1256 0.991691 8.88391 1.87502 7.50055C3.91669 4.31722 6.87502 2.48389 10 2.48389C13.125 2.48389 16.0834 4.31722 18.1167 7.50055C19 8.87558 19 11.1172 18.1167 12.5006C16.0834 15.6839 13.125 17.5172 10 17.5172ZM10 3.73389C7.30836 3.73389 4.73336 5.35055 2.93336 8.17555C2.30836 9.15058 2.30836 10.8506 2.93336 11.8256C4.73336 14.6506 7.30836 16.2672 10 16.2672C12.6917 16.2672 15.2667 14.6506 17.0667 11.8256C17.6917 10.8506 17.6917 9.15058 17.0667 8.17555C15.2667 5.35055 12.6917 3.73389 10 3.73389Z" fill="#F36969"/>
</g>
</g>
<defs>
<clipPath id="clip0_1232_11412">
<rect width="20" height="20" fill="white"/>
</clipPath>
</defs>
</svg>
