<svg width="49" height="49" viewBox="0 0 49 49" fill="none" xmlns="http://www.w3.org/2000/svg">
<path d="M24.3281 0.5C37.583 0.5 48.3281 11.2452 48.3281 24.5C48.3281 37.7548 37.583 48.5 24.3281 48.5C11.0733 48.5 0.328125 37.7548 0.328125 24.5C0.328125 11.2452 11.0733 0.5 24.3281 0.5Z" fill="#FCE4EC"/>
<path d="M24.3281 0.5C37.583 0.5 48.3281 11.2452 48.3281 24.5C48.3281 37.7548 37.583 48.5 24.3281 48.5C11.0733 48.5 0.328125 37.7548 0.328125 24.5C0.328125 11.2452 11.0733 0.5 24.3281 0.5Z" stroke="#E5E7EB"/>
<path d="M36.8281 34.5H11.8281V14.5H36.8281V34.5Z" stroke="#E5E7EB"/>
<g clip-path="url(#clip0_461_5838)">
<path d="M24.4609 17.8281L20.6797 20.8906C20.0508 21.3984 19.9297 22.3125 20.4062 22.9648C20.9102 23.6602 21.8906 23.7969 22.5664 23.2695L26.4453 20.2539C26.7188 20.043 27.1094 20.0898 27.3242 20.3633C27.5391 20.6367 27.4883 21.0273 27.2148 21.2422L26.3984 21.875L31.8281 26.875V19.5H31.8008L31.6484 19.4023L28.8125 17.5859C28.2148 17.2031 27.5156 17 26.8047 17C25.9531 17 25.125 17.293 24.4609 17.8281ZM25.3516 22.6875L23.332 24.2578C22.1016 25.2188 20.3164 24.9688 19.3945 23.7031C18.5273 22.5117 18.7461 20.8477 19.8906 19.9219L23.1406 17.293C22.6875 17.1016 22.1992 17.0039 21.7031 17.0039C20.9688 17 20.2539 17.2188 19.6406 17.625L16.8281 19.5V28.25H17.9297L21.5 31.5078C22.2656 32.207 23.4492 32.1523 24.1484 31.3867C24.3633 31.1484 24.5078 30.8711 24.582 30.582L25.2461 31.1914C26.0078 31.8906 27.1953 31.8398 27.8945 31.0781C28.0703 30.8867 28.1992 30.6641 28.2812 30.4336C29.0391 30.9414 30.0703 30.8359 30.707 30.1406C31.4062 29.3789 31.3555 28.1914 30.5938 27.4922L25.3516 22.6875ZM12.4531 19.5C12.1094 19.5 11.8281 19.7812 11.8281 20.125V28.25C11.8281 28.9414 12.3867 29.5 13.0781 29.5H14.3281C15.0195 29.5 15.5781 28.9414 15.5781 28.25V19.5H12.4531ZM13.7031 27C13.8689 27 14.0279 27.0658 14.1451 27.1831C14.2623 27.3003 14.3281 27.4592 14.3281 27.625C14.3281 27.7908 14.2623 27.9497 14.1451 28.0669C14.0279 28.1842 13.8689 28.25 13.7031 28.25C13.5374 28.25 13.3784 28.1842 13.2612 28.0669C13.144 27.9497 13.0781 27.7908 13.0781 27.625C13.0781 27.4592 13.144 27.3003 13.2612 27.1831C13.3784 27.0658 13.5374 27 13.7031 27ZM33.0781 19.5V28.25C33.0781 28.9414 33.6367 29.5 34.3281 29.5H35.5781C36.2695 29.5 36.8281 28.9414 36.8281 28.25V20.125C36.8281 19.7812 36.5469 19.5 36.2031 19.5H33.0781ZM34.3281 27.625C34.3281 27.4592 34.394 27.3003 34.5112 27.1831C34.6284 27.0658 34.7874 27 34.9531 27C35.1189 27 35.2779 27.0658 35.3951 27.1831C35.5123 27.3003 35.5781 27.4592 35.5781 27.625C35.5781 27.7908 35.5123 27.9497 35.3951 28.0669C35.2779 28.1842 35.1189 28.25 34.9531 28.25C34.7874 28.25 34.6284 28.1842 34.5112 28.0669C34.394 27.9497 34.3281 27.7908 34.3281 27.625Z" fill="#C2185B"/>
</g>
<defs>
<clipPath id="clip0_461_5838">
<path d="M11.8281 14.5H36.8281V34.5H11.8281V14.5Z" fill="white"/>
</clipPath>
</defs>
</svg>
