<svg width="50" height="50" viewBox="0 0 50 50" fill="none" xmlns="http://www.w3.org/2000/svg">
<g filter="url(#filter0_dd_1232_11738)">
<path d="M3 14C3 7.37258 8.37258 2 15 2H35C41.6274 2 47 7.37258 47 14V34C47 40.6274 41.6274 46 35 46H15C8.37258 46 3 40.6274 3 34V14Z" fill="#F9FAFB"/>
<path d="M32.5 34H17.5V14H32.5V34Z" stroke="#E5E7EB"/>
<path d="M32.5 34H17.5V14H32.5V34Z" stroke="#E5E7EB"/>
<path d="M28.125 29C28.5 27.7539 29.2773 26.6914 30.0469 25.6328C30.25 25.3555 30.4531 25.0781 30.6484 24.7969C31.4219 23.6836 31.875 22.3359 31.875 20.8789C31.875 17.0781 28.7969 14 25 14C21.2031 14 18.125 17.0781 18.125 20.875C18.125 22.332 18.5781 23.6836 19.3516 24.793C19.5469 25.0742 19.75 25.3516 19.9531 25.6289C20.7266 26.6875 21.5039 27.7539 21.875 28.9961H28.125V29ZM25 34C26.7266 34 28.125 32.6016 28.125 30.875V30.25H21.875V30.875C21.875 32.6016 23.2734 34 25 34ZM21.875 20.875C21.875 21.2188 21.5938 21.5 21.25 21.5C20.9062 21.5 20.625 21.2188 20.625 20.875C20.625 18.457 22.582 16.5 25 16.5C25.3438 16.5 25.625 16.7812 25.625 17.125C25.625 17.4688 25.3438 17.75 25 17.75C23.2734 17.75 21.875 19.1484 21.875 20.875Z" fill="#FFA726"/>
</g>
<defs>
<filter id="filter0_dd_1232_11738" x="0" y="0" width="50" height="50" filterUnits="userSpaceOnUse" color-interpolation-filters="sRGB">
<feFlood flood-opacity="0" result="BackgroundImageFix"/>
<feColorMatrix in="SourceAlpha" type="matrix" values="0 0 0 0 0 0 0 0 0 0 0 0 0 0 0 0 0 0 127 0" result="hardAlpha"/>
<feOffset dy="1"/>
<feGaussianBlur stdDeviation="1.5"/>
<feColorMatrix type="matrix" values="0 0 0 0 0 0 0 0 0 0 0 0 0 0 0 0 0 0 0.1 0"/>
<feBlend mode="normal" in2="BackgroundImageFix" result="effect1_dropShadow_1232_11738"/>
<feColorMatrix in="SourceAlpha" type="matrix" values="0 0 0 0 0 0 0 0 0 0 0 0 0 0 0 0 0 0 127 0" result="hardAlpha"/>
<feOffset dy="1"/>
<feGaussianBlur stdDeviation="1"/>
<feColorMatrix type="matrix" values="0 0 0 0 0 0 0 0 0 0 0 0 0 0 0 0 0 0 0.1 0"/>
<feBlend mode="normal" in2="effect1_dropShadow_1232_11738" result="effect2_dropShadow_1232_11738"/>
<feBlend mode="normal" in="SourceGraphic" in2="effect2_dropShadow_1232_11738" result="shape"/>
</filter>
</defs>
</svg>
