<svg width="49" height="48" viewBox="0 0 49 48" fill="none" xmlns="http://www.w3.org/2000/svg">
<path d="M24.3281 0C37.583 0 48.3281 10.7452 48.3281 24C48.3281 37.2548 37.583 48 24.3281 48C11.0733 48 0.328125 37.2548 0.328125 24C0.328125 10.7452 11.0733 0 24.3281 0Z" fill="#E3F2FD"/>
<path d="M24.3281 0C37.583 0 48.3281 10.7452 48.3281 24C48.3281 37.2548 37.583 48 24.3281 48C11.0733 48 0.328125 37.2548 0.328125 24C0.328125 10.7452 11.0733 0 24.3281 0Z" stroke="#E5E7EB"/>
<path d="M36.8281 34H11.8281V14H36.8281V34Z" stroke="#E5E7EB"/>
<g clip-path="url(#clip0_461_5814)">
<path d="M13.7031 14C12.668 14 11.8281 14.8398 11.8281 15.875V28.375C11.8281 29.4102 12.668 30.25 13.7031 30.25H14.3281C14.3281 32.3203 16.0078 34 18.0781 34C20.1484 34 21.8281 32.3203 21.8281 30.25H26.8281C26.8281 32.3203 28.5078 34 30.5781 34C32.6484 34 34.3281 32.3203 34.3281 30.25H35.5781C36.2695 30.25 36.8281 29.6914 36.8281 29C36.8281 28.3086 36.2695 27.75 35.5781 27.75V25.25V24V23.2695C35.5781 22.6055 35.3164 21.9688 34.8477 21.5L31.8281 18.4805C31.3594 18.0117 30.7227 17.75 30.0586 17.75H28.0781V15.875C28.0781 14.8398 27.2383 14 26.2031 14H13.7031ZM28.0781 20.25H30.0586L33.0781 23.2695V24H28.0781V20.25ZM16.2031 30.25C16.2031 29.7527 16.4007 29.2758 16.7523 28.9242C17.1039 28.5725 17.5808 28.375 18.0781 28.375C18.5754 28.375 19.0523 28.5725 19.404 28.9242C19.7556 29.2758 19.9531 29.7527 19.9531 30.25C19.9531 30.7473 19.7556 31.2242 19.404 31.5758C19.0523 31.9275 18.5754 32.125 18.0781 32.125C17.5808 32.125 17.1039 31.9275 16.7523 31.5758C16.4007 31.2242 16.2031 30.7473 16.2031 30.25ZM30.5781 28.375C31.0754 28.375 31.5523 28.5725 31.9039 28.9242C32.2556 29.2758 32.4531 29.7527 32.4531 30.25C32.4531 30.7473 32.2556 31.2242 31.9039 31.5758C31.5523 31.9275 31.0754 32.125 30.5781 32.125C30.0808 32.125 29.6039 31.9275 29.2523 31.5758C28.9007 31.2242 28.7031 30.7473 28.7031 30.25C28.7031 29.7527 28.9007 29.2758 29.2523 28.9242C29.6039 28.5725 30.0808 28.375 30.5781 28.375Z" fill="#1A73E8"/>
</g>
<defs>
<clipPath id="clip0_461_5814">
<path d="M11.8281 14H36.8281V34H11.8281V14Z" fill="white"/>
</clipPath>
</defs>
</svg>
