<svg width="19" height="15" viewBox="0 0 19 15" fill="none" xmlns="http://www.w3.org/2000/svg">
<path d="M1.414 5.707L0.707 6.414L0 5.707L0.707 5L1.414 5.707ZM18.414 13.707C18.414 13.9722 18.3086 14.2266 18.1211 14.4141C17.9336 14.6016 17.6792 14.707 17.414 14.707C17.1488 14.707 16.8944 14.6016 16.7069 14.4141C16.5194 14.2266 16.414 13.9722 16.414 13.707H18.414ZM5.707 11.414L0.707 6.414L2.121 5L7.121 10L5.707 11.414ZM0.707 5L5.707 0L7.121 1.414L2.121 6.414L0.707 5ZM1.414 4.707H11.414V6.707H1.414V4.707ZM18.414 11.707V13.707H16.414V11.707H18.414ZM11.414 4.707C13.2705 4.707 15.051 5.4445 16.3637 6.75725C17.6765 8.07001 18.414 9.85048 18.414 11.707H16.414C16.414 10.3809 15.8872 9.10915 14.9495 8.17147C14.0119 7.23378 12.7401 6.707 11.414 6.707V4.707Z" fill="black"/>
</svg>
