<svg width="49" height="49" viewBox="0 0 49 49" fill="none" xmlns="http://www.w3.org/2000/svg">
<path d="M24.6562 0.5C37.9111 0.5 48.6562 11.2452 48.6562 24.5C48.6562 37.7548 37.9111 48.5 24.6562 48.5C11.4014 48.5 0.65625 37.7548 0.65625 24.5C0.65625 11.2452 11.4014 0.5 24.6562 0.5Z" fill="#E0E0E0"/>
<path d="M24.6562 0.5C37.9111 0.5 48.6562 11.2452 48.6562 24.5C48.6562 37.7548 37.9111 48.5 24.6562 48.5C11.4014 48.5 0.65625 37.7548 0.65625 24.5C0.65625 11.2452 11.4014 0.5 24.6562 0.5Z" stroke="#E5E7EB"/>
<path d="M18.616 32C18.1553 32 17.771 31.846 17.463 31.538C17.155 31.23 17.0007 30.8453 17 30.384V17.616C17 17.1553 17.1543 16.771 17.463 16.463C17.7717 16.155 18.156 16.0007 18.616 16H24.5V32H18.616ZM25.5 32V24H33V30.385C33 30.845 32.846 31.229 32.538 31.537C32.23 31.845 31.8453 31.9993 31.384 32H25.5ZM25.5 23V16H31.385C31.845 16 32.229 16.1543 32.537 16.463C32.845 16.7717 32.9993 17.156 33 17.616V23H25.5Z" fill="#FF5E5E"/>
</svg>
