<svg width="49" height="48" viewBox="0 0 49 48" fill="none" xmlns="http://www.w3.org/2000/svg">
<path d="M24.6562 0C37.9111 0 48.6562 10.7452 48.6562 24C48.6562 37.2548 37.9111 48 24.6562 48C11.4014 48 0.65625 37.2548 0.65625 24C0.65625 10.7452 11.4014 0 24.6562 0Z" fill="#FFF3E0"/>
<path d="M24.6562 0C37.9111 0 48.6562 10.7452 48.6562 24C48.6562 37.2548 37.9111 48 24.6562 48C11.4014 48 0.65625 37.2548 0.65625 24C0.65625 10.7452 11.4014 0 24.6562 0Z" stroke="#E5E7EB"/>
<path d="M35.9062 34H13.4062V14H35.9062V34Z" stroke="#E5E7EB"/>
<g clip-path="url(#clip0_461_5830)">
<path d="M13.4062 18.3945V30.4961C13.4062 31.1992 13.8008 31.8633 14.4609 32.1094C17.8594 33.3789 21.2578 32.5117 24.6562 31.6445C27.7734 30.8516 30.8906 30.0547 34.0039 30.9062C34.9023 31.1523 35.9062 30.5351 35.9062 29.6016V17.5039C35.9062 16.8008 35.5117 16.1367 34.8516 15.8906C31.4531 14.6211 28.0547 15.4883 24.6562 16.3555C21.5391 17.1484 18.4219 17.9414 15.3086 17.0898C14.4062 16.8437 13.4062 17.4609 13.4062 18.3945ZM24.6562 27.75C22.9297 27.75 21.5312 26.0703 21.5312 24C21.5312 21.9297 22.9297 20.25 24.6562 20.25C26.3828 20.25 27.7812 21.9297 27.7812 24C27.7812 26.0703 26.3828 27.75 24.6562 27.75ZM15.9062 27.75C17.2852 27.75 18.4062 28.8711 18.4062 30.25H15.9062V27.75ZM18.4062 19.625C18.4062 21.0039 17.2852 22.125 15.9062 22.125V19.625H18.4062ZM33.4062 25.875V28.375H30.9062C30.9062 26.9961 32.0273 25.875 33.4062 25.875ZM30.9062 17.75H33.4062V20.25C32.0273 20.25 30.9062 19.1289 30.9062 17.75Z" fill="#FF7043"/>
</g>
<defs>
<clipPath id="clip0_461_5830">
<path d="M13.4062 14H35.9062V34H13.4062V14Z" fill="white"/>
</clipPath>
</defs>
</svg>
