<svg width="15" height="14" viewBox="0 0 15 14" fill="none" xmlns="http://www.w3.org/2000/svg">
<path d="M14.2969 14H0.296875V0H14.2969V14Z" stroke="#E5E7EB"/>
<g clip-path="url(#clip0_1567_8293)">
<path d="M12.3555 1.61052L12.6863 1.94138C12.9434 2.19841 12.9434 2.61404 12.6863 2.86834L11.8906 3.66677L10.6301 2.40623L11.4258 1.61052C11.6828 1.35349 12.0984 1.35349 12.3527 1.61052H12.3555ZM6.03359 7.00544L9.70312 3.33318L10.9637 4.59373L7.29141 8.26326C7.21211 8.34255 7.11367 8.39998 7.00703 8.43005L5.40742 8.88669L5.86406 7.28709C5.89414 7.18044 5.95156 7.08201 6.03086 7.00271L6.03359 7.00544ZM10.4988 0.683569L5.10391 6.07576C4.86602 6.31365 4.69375 6.60623 4.60352 6.92615L3.82148 9.66052C3.75586 9.89021 3.81875 10.1363 3.98828 10.3058C4.15781 10.4754 4.40391 10.5383 4.63359 10.4726L7.36797 9.6906C7.69063 9.59763 7.9832 9.42537 8.21836 9.19021L13.6133 3.79802C14.3816 3.02966 14.3816 1.78279 13.6133 1.01443L13.2824 0.683569C12.5141 -0.08479 11.2672 -0.08479 10.4988 0.683569ZM2.70312 1.74998C1.37422 1.74998 0.296875 2.82732 0.296875 4.15623V11.5937C0.296875 12.9226 1.37422 14 2.70312 14H10.1406C11.4695 14 12.5469 12.9226 12.5469 11.5937V8.53123C12.5469 8.16755 12.2543 7.87498 11.8906 7.87498C11.527 7.87498 11.2344 8.16755 11.2344 8.53123V11.5937C11.2344 12.198 10.7449 12.6875 10.1406 12.6875H2.70312C2.09883 12.6875 1.60938 12.198 1.60938 11.5937V4.15623C1.60938 3.55193 2.09883 3.06248 2.70312 3.06248H5.76562C6.1293 3.06248 6.42188 2.7699 6.42188 2.40623C6.42188 2.04255 6.1293 1.74998 5.76562 1.74998H2.70312Z" fill="black"/>
</g>
<defs>
<clipPath id="clip0_1567_8293">
<path d="M0.296875 0H14.2969V14H0.296875V0Z" fill="white"/>
</clipPath>
</defs>
</svg>
