<svg width="25" height="25" viewBox="0 0 25 25" fill="none" xmlns="http://www.w3.org/2000/svg">
<g clip-path="url(#clip0_1567_8449)">
<g clip-path="url(#clip1_1567_8449)">
<path d="M18.3703 5.46406L24.1266 11.2203C24.4641 11.5578 24.6562 12.0219 24.6562 12.5C24.6562 12.9781 24.4641 13.4422 24.1266 13.7797L18.3703 19.5359C18.0703 19.8359 17.6672 20 17.2453 20C16.3687 20 15.6562 19.2875 15.6562 18.4109V15.5H9.65625C8.82656 15.5 8.15625 14.8297 8.15625 14V11C8.15625 10.1703 8.82656 9.5 9.65625 9.5H15.6562V6.58906C15.6562 5.7125 16.3687 5 17.2453 5C17.6672 5 18.0703 5.16875 18.3703 5.46406ZM8.15625 5H5.15625C4.32656 5 3.65625 5.67031 3.65625 6.5V18.5C3.65625 19.3297 4.32656 20 5.15625 20H8.15625C8.98594 20 9.65625 20.6703 9.65625 21.5C9.65625 22.3297 8.98594 23 8.15625 23H5.15625C2.67188 23 0.65625 20.9844 0.65625 18.5V6.5C0.65625 4.01562 2.67188 2 5.15625 2H8.15625C8.98594 2 9.65625 2.67031 9.65625 3.5C9.65625 4.32969 8.98594 5 8.15625 5Z" fill="#EF4444"/>
</g>
</g>
<defs>
<clipPath id="clip0_1567_8449">
<rect width="24" height="24" fill="white" transform="translate(0.65625 0.5)"/>
</clipPath>
<clipPath id="clip1_1567_8449">
<path d="M0.65625 0.5H24.6562V24.5H0.65625V0.5Z" fill="white"/>
</clipPath>
</defs>
</svg>
