<svg width="14" height="19" viewBox="0 0 14 19" fill="none" xmlns="http://www.w3.org/2000/svg">
<g clip-path="url(#clip0_1567_8362)">
<path d="M0.5625 2.75C0.5625 1.50898 1.57148 0.5 2.8125 0.5H10.6875C11.9285 0.5 12.9375 1.50898 12.9375 2.75V16.25C12.9375 17.491 11.9285 18.5 10.6875 18.5H2.8125C1.57148 18.5 0.5625 17.491 0.5625 16.25V2.75ZM7.875 16.25C7.875 15.9516 7.75647 15.6655 7.5455 15.4545C7.33452 15.2435 7.04837 15.125 6.75 15.125C6.45163 15.125 6.16548 15.2435 5.9545 15.4545C5.74353 15.6655 5.625 15.9516 5.625 16.25C5.625 16.5484 5.74353 16.8345 5.9545 17.0455C6.16548 17.2565 6.45163 17.375 6.75 17.375C7.04837 17.375 7.33452 17.2565 7.5455 17.0455C7.75647 16.8345 7.875 16.5484 7.875 16.25ZM10.6875 2.75H2.8125V14H10.6875V2.75Z" fill="black"/>
</g>
<defs>
<clipPath id="clip0_1567_8362">
<path d="M0 0.5H13.5V18.5H0V0.5Z" fill="white"/>
</clipPath>
</defs>
</svg>
