<svg width="50" height="50" viewBox="0 0 50 50" fill="none" xmlns="http://www.w3.org/2000/svg">
<g filter="url(#filter0_dd_1232_11747)">
<path d="M3 14C3 7.37258 8.37258 2 15 2H35C41.6274 2 47 7.37258 47 14V34C47 40.6274 41.6274 46 35 46H15C8.37258 46 3 40.6274 3 34V14Z" fill="#F9FAFB"/>
<g clip-path="url(#clip0_1232_11747)">
<path d="M36.4219 34H13.9219V14H36.4219V34Z" stroke="#E5E7EB"/>
<path d="M24.2539 14.2031C24.8359 13.9336 25.5078 13.9336 26.0898 14.2031L34.6289 18.1484C34.9609 18.3008 35.1719 18.6328 35.1719 19C35.1719 19.3672 34.9609 19.6992 34.6289 19.8516L26.0898 23.7969C25.5078 24.0664 24.8359 24.0664 24.2539 23.7969L15.7148 19.8516C15.3828 19.6953 15.1719 19.3633 15.1719 19C15.1719 18.6367 15.3828 18.3008 15.7148 18.1484L24.2539 14.2031ZM32.5508 22.1875L34.6289 23.1484C34.9609 23.3008 35.1719 23.6328 35.1719 24C35.1719 24.3672 34.9609 24.6992 34.6289 24.8516L26.0898 28.7969C25.5078 29.0664 24.8359 29.0664 24.2539 28.7969L15.7148 24.8516C15.3828 24.6953 15.1719 24.3633 15.1719 24C15.1719 23.6367 15.3828 23.3008 15.7148 23.1484L17.793 22.1875L23.7305 24.9297C24.6445 25.3516 25.6992 25.3516 26.6133 24.9297L32.5508 22.1875ZM26.6133 29.9297L32.5508 27.1875L34.6289 28.1484C34.9609 28.3008 35.1719 28.6328 35.1719 29C35.1719 29.3672 34.9609 29.6992 34.6289 29.8516L26.0898 33.7969C25.5078 34.0664 24.8359 34.0664 24.2539 33.7969L15.7148 29.8516C15.3828 29.6953 15.1719 29.3633 15.1719 29C15.1719 28.6367 15.3828 28.3008 15.7148 28.1484L17.793 27.1875L23.7305 29.9297C24.6445 30.3516 25.6992 30.3516 26.6133 29.9297Z" fill="#535353"/>
</g>
</g>
<defs>
<filter id="filter0_dd_1232_11747" x="0" y="0" width="50" height="50" filterUnits="userSpaceOnUse" color-interpolation-filters="sRGB">
<feFlood flood-opacity="0" result="BackgroundImageFix"/>
<feColorMatrix in="SourceAlpha" type="matrix" values="0 0 0 0 0 0 0 0 0 0 0 0 0 0 0 0 0 0 127 0" result="hardAlpha"/>
<feOffset dy="1"/>
<feGaussianBlur stdDeviation="1.5"/>
<feColorMatrix type="matrix" values="0 0 0 0 0 0 0 0 0 0 0 0 0 0 0 0 0 0 0.1 0"/>
<feBlend mode="normal" in2="BackgroundImageFix" result="effect1_dropShadow_1232_11747"/>
<feColorMatrix in="SourceAlpha" type="matrix" values="0 0 0 0 0 0 0 0 0 0 0 0 0 0 0 0 0 0 127 0" result="hardAlpha"/>
<feOffset dy="1"/>
<feGaussianBlur stdDeviation="1"/>
<feColorMatrix type="matrix" values="0 0 0 0 0 0 0 0 0 0 0 0 0 0 0 0 0 0 0.1 0"/>
<feBlend mode="normal" in2="effect1_dropShadow_1232_11747" result="effect2_dropShadow_1232_11747"/>
<feBlend mode="normal" in="SourceGraphic" in2="effect2_dropShadow_1232_11747" result="shape"/>
</filter>
<clipPath id="clip0_1232_11747">
<rect width="22.5" height="20" fill="white" transform="translate(13.9219 14)"/>
</clipPath>
</defs>
</svg>
