<svg width="16" height="18" viewBox="0 0 16 18" fill="none" xmlns="http://www.w3.org/2000/svg">
<g clip-path="url(#clip0_468_4481)">
<path d="M0.45459 8.20542C0.0151367 8.64487 0.0151367 9.35855 0.45459 9.798L6.07959 15.423C6.51904 15.8625 7.23272 15.8625 7.67217 15.423C8.11162 14.9835 8.11162 14.2699 7.67217 13.8304L3.96318 10.125H14.7491C15.3714 10.125 15.8741 9.62222 15.8741 8.99995C15.8741 8.37769 15.3714 7.87495 14.7491 7.87495H3.9667L7.66865 4.16948C8.10811 3.73003 8.10811 3.01636 7.66865 2.5769C7.2292 2.13745 6.51553 2.13745 6.07607 2.5769L0.451074 8.2019L0.45459 8.20542Z" fill="#F36969"/>
</g>
<defs>
<clipPath id="clip0_468_4481">
<path d="M0.125 0H15.875V18H0.125V0Z" fill="white"/>
</clipPath>
</defs>
</svg>
