<svg width="25" height="25" viewBox="0 0 25 25" fill="none" xmlns="http://www.w3.org/2000/svg">
<g clip-path="url(#clip0_1567_8443)">
<path d="M22.7102 11H23.1086C23.732 11 24.2336 10.4984 24.2336 9.87497V3.87497C24.2336 3.42028 23.9617 3.00778 23.5398 2.83434C23.118 2.66091 22.6352 2.75466 22.3117 3.07809L20.3617 5.02809C16.2555 0.973407 9.64141 0.98747 5.55859 5.07497C1.45703 9.17653 1.45703 15.8234 5.55859 19.925C9.66016 24.0265 16.307 24.0265 20.4086 19.925C20.9945 19.339 20.9945 18.3875 20.4086 17.8015C19.8227 17.2156 18.8711 17.2156 18.2852 17.8015C15.3555 20.7312 10.607 20.7312 7.67734 17.8015C4.74766 14.8718 4.74766 10.1234 7.67734 7.19372C10.593 4.27809 15.3039 4.26403 18.2383 7.14684L16.3117 9.07809C15.9883 9.40153 15.8945 9.88434 16.068 10.3062C16.2414 10.7281 16.6539 11 17.1086 11H22.7102Z" fill="black"/>
</g>
<defs>
<clipPath id="clip0_1567_8443">
<path d="M0.984375 0.5H24.9844V24.5H0.984375V0.5Z" fill="white"/>
</clipPath>
</defs>
</svg>
