<svg width="24" height="24" viewBox="0 0 24 24" fill="none" xmlns="http://www.w3.org/2000/svg">
<g clip-path="url(#clip0_1567_8379)">
<path d="M24 24H0V0H24V24Z" stroke="#E5E7EB"/>
<path d="M20.4054 4.55156C18.1607 2.58281 15.1714 1.5 11.9946 1.5C5.4375 1.5 0.101786 6.16875 0.101786 11.9062C0.101786 13.7391 0.648214 15.5297 1.6875 17.1094L0 22.5L6.30536 21.0516C8.04107 21.8813 9.99643 22.3172 11.9893 22.3172H11.9946C18.5464 22.3172 24 17.6484 24 11.9109C24 9.13125 22.65 6.52031 20.4054 4.55156ZM11.9946 20.5641C10.2161 20.5641 8.475 20.1469 6.95893 19.3594L6.6 19.1719L2.86071 20.0297L3.85714 16.8375L3.62143 16.5094C2.63036 15.1313 2.11071 13.5422 2.11071 11.9062C2.11071 7.13906 6.54643 3.25781 12 3.25781C14.6411 3.25781 17.1214 4.15781 18.9857 5.79375C20.85 7.42969 21.9964 9.6 21.9911 11.9109C21.9911 16.6828 17.4429 20.5641 11.9946 20.5641ZM17.4161 14.0859C17.1214 13.9547 15.6589 13.3266 15.3857 13.2422C15.1125 13.1531 14.9143 13.1109 14.7161 13.3734C14.5179 13.6359 13.95 14.2172 13.7732 14.3953C13.6018 14.5688 13.425 14.5922 13.1304 14.4609C11.3839 13.6969 10.2375 13.0969 9.08571 11.3672C8.78036 10.9078 9.39107 10.9406 9.95893 9.94687C10.0554 9.77344 10.0071 9.62344 9.93214 9.49219C9.85714 9.36094 9.2625 8.08125 9.01607 7.56094C8.775 7.05469 8.52857 7.125 8.34643 7.11563C8.175 7.10625 7.97679 7.10625 7.77857 7.10625C7.58036 7.10625 7.25893 7.17188 6.98571 7.42969C6.7125 7.69219 5.94643 8.32031 5.94643 9.6C5.94643 10.8797 7.0125 12.1172 7.15714 12.2906C7.30714 12.4641 9.25179 15.0891 12.2357 16.2188C14.1214 16.9312 14.8607 16.9922 15.8036 16.8703C16.3768 16.7953 17.5607 16.2422 17.8071 15.6328C18.0536 15.0234 18.0536 14.5031 17.9786 14.3953C17.9089 14.2781 17.7107 14.2125 17.4161 14.0859Z" fill="#22C55E"/>
</g>
<defs>
<clipPath id="clip0_1567_8379">
<rect width="24" height="24" fill="white"/>
</clipPath>
</defs>
</svg>
