<svg width="29" height="29" viewBox="0 0 29 29" fill="none" xmlns="http://www.w3.org/2000/svg">
<g clip-path="url(#clip0_1567_8323)">
<g clip-path="url(#clip1_1567_8323)">
<path d="M13 5C7.475 5 3 5.625 3 10V22.5C3 23.5625 3.4625 24.575 4.25 25.275V27.5C4.25 28.1875 4.8125 28.75 5.5 28.75H6.75C7.4375 28.75 8 28.1875 8 27.5V26.25H18V27.5C18 28.1875 18.5625 28.75 19.25 28.75H20.5C21.1875 28.75 21.75 28.1875 21.75 27.5V25.275C22.5375 24.575 23 23.5625 23 22.5V10C23 5.625 18.525 5 13 5ZM7.375 23.75C6.3375 23.75 5.5 22.9125 5.5 21.875C5.5 20.8375 6.3375 20 7.375 20C8.4125 20 9.25 20.8375 9.25 21.875C9.25 22.9125 8.4125 23.75 7.375 23.75ZM18.625 23.75C17.5875 23.75 16.75 22.9125 16.75 21.875C16.75 20.8375 17.5875 20 18.625 20C19.6625 20 20.5 20.8375 20.5 21.875C20.5 22.9125 19.6625 23.75 18.625 23.75ZM20.5 16.25H5.5V10H20.5V16.25ZM28 5V17.5C28 18.5625 27.5375 19.575 26.75 20.275V22.5C26.75 23.1875 26.1875 23.75 25.5 23.75H25.35C25.4375 23.35 25.5 22.9375 25.5 22.5V10C25.5 2.5 16.75 2.5 13 2.5C11.8625 2.5 10.25 2.5 8.575 2.7125C9.9375 0.4 13.625 0 18 0C23.525 0 28 0.625 28 5Z" fill="#535353"/>
</g>
</g>
<defs>
<clipPath id="clip0_1567_8323">
<rect width="29" height="29" fill="white"/>
</clipPath>
<clipPath id="clip1_1567_8323">
<path d="M-0.5 -0.5H29.5V29.5H-0.5V-0.5Z" fill="white"/>
</clipPath>
</defs>
</svg>
