<svg width="22" height="22" viewBox="0 0 22 22" fill="none" xmlns="http://www.w3.org/2000/svg">
<g clip-path="url(#clip0_468_4486)">
<g clip-path="url(#clip1_468_4486)">
<path d="M20.2641 0.932324C19.323 -0.00869143 17.802 -0.00869143 16.8609 0.932324L15.5676 2.22139L19.7742 6.42803L21.0676 5.13467C22.0086 4.19365 22.0086 2.67256 21.0676 1.73154L20.2641 0.932324ZM7.40781 10.3854C7.1457 10.6476 6.94375 10.9698 6.82773 11.3265L5.55586 15.1421C5.43125 15.5116 5.53008 15.9198 5.80508 16.1991C6.08008 16.4784 6.48828 16.5729 6.86211 16.4483L10.6777 15.1765C11.0301 15.0604 11.3523 14.8585 11.6188 14.5964L18.8074 7.40342L14.5965 3.19248L7.40781 10.3854ZM4.125 2.7499C1.84766 2.7499 0 4.59756 0 6.8749V17.8749C0 20.1522 1.84766 21.9999 4.125 21.9999H15.125C17.4023 21.9999 19.25 20.1522 19.25 17.8749V13.7499C19.25 12.9894 18.6355 12.3749 17.875 12.3749C17.1145 12.3749 16.5 12.9894 16.5 13.7499V17.8749C16.5 18.6355 15.8855 19.2499 15.125 19.2499H4.125C3.36445 19.2499 2.75 18.6355 2.75 17.8749V6.8749C2.75 6.11436 3.36445 5.4999 4.125 5.4999H8.25C9.01055 5.4999 9.625 4.88545 9.625 4.1249C9.625 3.36436 9.01055 2.7499 8.25 2.7499H4.125Z" fill="#F36969"/>
</g>
</g>
<defs>
<clipPath id="clip0_468_4486">
<rect width="22" height="22" fill="white"/>
</clipPath>
<clipPath id="clip1_468_4486">
<path d="M0 0H22V22H0V0Z" fill="white"/>
</clipPath>
</defs>
</svg>
