<svg width="18" height="18" viewBox="0 0 18 18" fill="none" xmlns="http://www.w3.org/2000/svg">
<path d="M16.8764 9.1749C16.8764 8.5274 16.8228 8.0549 16.7067 7.56491H9.16211V10.4874H13.5906C13.5014 11.2136 13.0192 12.3074 11.9478 13.0424L11.9328 13.1402L14.3183 14.9512L14.4835 14.9674C16.0014 13.5936 16.8764 11.5724 16.8764 9.1749Z" fill="#4285F4"/>
<path d="M9.16098 16.875C11.3306 16.875 13.152 16.175 14.4824 14.9675L11.9467 13.0424C11.2681 13.5062 10.3574 13.8299 9.16098 13.8299C7.03601 13.8299 5.23246 12.4562 4.58954 10.5574L4.4953 10.5653L2.01486 12.4465L1.98242 12.5349C3.30383 15.1074 6.01811 16.875 9.16098 16.875Z" fill="#34A853"/>
<path d="M4.58925 10.5575C4.41961 10.0675 4.32143 9.54245 4.32143 8.99997C4.32143 8.45744 4.41961 7.93246 4.58032 7.44247L4.57583 7.33811L2.06429 5.42664L1.98212 5.46494C1.4375 6.53245 1.125 7.73123 1.125 8.99997C1.125 10.2687 1.4375 11.4674 1.98212 12.5349L4.58925 10.5575Z" fill="#FBBC05"/>
<path d="M9.16103 4.16998C10.6699 4.16998 11.6878 4.80873 12.2682 5.34251L14.536 3.1725C13.1432 1.90375 11.3306 1.125 9.16103 1.125C6.01814 1.125 3.30384 2.89249 1.98242 5.46497L4.58063 7.44249C5.23248 5.54375 7.03604 4.16998 9.16103 4.16998Z" fill="#EB4335"/>
</svg>
