<svg width="19" height="23" viewBox="0 0 19 23" fill="none" xmlns="http://www.w3.org/2000/svg">
<g clip-path="url(#clip0_1567_8300)">
<g clip-path="url(#clip1_1567_8300)">
<path d="M12.8929 5.75C12.8929 4.79688 12.5354 3.88279 11.8991 3.20884C11.2628 2.53488 10.3998 2.15625 9.5 2.15625C8.60016 2.15625 7.73717 2.53488 7.10089 3.20884C6.4646 3.88279 6.10714 4.79688 6.10714 5.75C6.10714 6.70312 6.4646 7.61721 7.10089 8.29117C7.73717 8.96512 8.60016 9.34375 9.5 9.34375C10.3998 9.34375 11.2628 8.96512 11.8991 8.29117C12.5354 7.61721 12.8929 6.70312 12.8929 5.75ZM4.07143 5.75C4.07143 4.22501 4.64337 2.76247 5.66142 1.68414C6.67947 0.605802 8.06025 0 9.5 0C10.9397 0 12.3205 0.605802 13.3386 1.68414C14.3566 2.76247 14.9286 4.22501 14.9286 5.75C14.9286 7.27499 14.3566 8.73753 13.3386 9.81586C12.3205 10.8942 10.9397 11.5 9.5 11.5C8.06025 11.5 6.67947 10.8942 5.66142 9.81586C4.64337 8.73753 4.07143 7.27499 4.07143 5.75ZM2.09085 20.8438H16.9092C16.5317 18.0002 14.2246 15.8125 11.4382 15.8125H7.56183C4.77545 15.8125 2.4683 18.0002 2.09085 20.8438ZM0 21.6658C0 17.241 3.38438 13.6562 7.56183 13.6562H11.4382C15.6156 13.6562 19 17.241 19 21.6658C19 22.4025 18.4359 23 17.7404 23H1.2596C0.564063 23 0 22.4025 0 21.6658Z" fill="#535353"/>
</g>
</g>
<defs>
<clipPath id="clip0_1567_8300">
<rect width="19" height="23" fill="white"/>
</clipPath>
<clipPath id="clip1_1567_8300">
<path d="M0 0H19V23H0V0Z" fill="white"/>
</clipPath>
</defs>
</svg>
