<svg width="24" height="18" viewBox="0 0 24 18" fill="none" xmlns="http://www.w3.org/2000/svg">
<g clip-path="url(#clip0_1567_8339)">
<path d="M18 15.5C17.6022 15.5 17.2206 15.342 16.9393 15.0607C16.658 14.7794 16.5 14.3978 16.5 14C16.5 13.6022 16.658 13.2206 16.9393 12.9393C17.2206 12.658 17.6022 12.5 18 12.5C18.3978 12.5 18.7794 12.658 19.0607 12.9393C19.342 13.2206 19.5 13.6022 19.5 14C19.5 14.3978 19.342 14.7794 19.0607 15.0607C18.7794 15.342 18.3978 15.5 18 15.5ZM19.5 6.5L21.46 9H17V6.5M6 15.5C5.60218 15.5 5.22064 15.342 4.93934 15.0607C4.65804 14.7794 4.5 14.3978 4.5 14C4.5 13.6022 4.65804 13.2206 4.93934 12.9393C5.22064 12.658 5.60218 12.5 6 12.5C6.39782 12.5 6.77936 12.658 7.06066 12.9393C7.34196 13.2206 7.5 13.6022 7.5 14C7.5 14.3978 7.34196 14.7794 7.06066 15.0607C6.77936 15.342 6.39782 15.5 6 15.5ZM20 5H17V1H3C1.89 1 1 1.89 1 3V14H3C3 14.7956 3.31607 15.5587 3.87868 16.1213C4.44129 16.6839 5.20435 17 6 17C6.79565 17 7.55871 16.6839 8.12132 16.1213C8.68393 15.5587 9 14.7956 9 14H15C15 14.7956 15.3161 15.5587 15.8787 16.1213C16.4413 16.6839 17.2044 17 18 17C18.7956 17 19.5587 16.6839 20.1213 16.1213C20.6839 15.5587 21 14.7956 21 14H23V9L20 5Z" fill="#535353"/>
</g>
<defs>
<clipPath id="clip0_1567_8339">
<rect width="24" height="18" fill="white"/>
</clipPath>
</defs>
</svg>
