<svg width="50" height="50" viewBox="0 0 50 50" fill="none" xmlns="http://www.w3.org/2000/svg">
<g filter="url(#filter0_dd_1232_11755)">
<path d="M3 14C3 7.37258 8.37258 2 15 2H35C41.6274 2 47 7.37258 47 14V34C47 40.6274 41.6274 46 35 46H15C8.37258 46 3 40.6274 3 34V14Z" fill="#F9FAFB"/>
<path d="M35 34H15V14H35V34Z" stroke="#E5E7EB"/>
<path d="M35 34H15V14H35V34Z" stroke="#E5E7EB"/>
<path d="M22.1875 15.875H27.8125C27.9844 15.875 28.125 16.0156 28.125 16.1875V17.75H21.875V16.1875C21.875 16.0156 22.0156 15.875 22.1875 15.875ZM20 16.1875V17.75H17.5C16.1211 17.75 15 18.8711 15 20.25V24H22.5H27.5H35V20.25C35 18.8711 33.8789 17.75 32.5 17.75H30V16.1875C30 14.9805 29.0195 14 27.8125 14H22.1875C20.9805 14 20 14.9805 20 16.1875ZM35 25.25H27.5V26.5C27.5 27.1914 26.9414 27.75 26.25 27.75H23.75C23.0586 27.75 22.5 27.1914 22.5 26.5V25.25H15V30.25C15 31.6289 16.1211 32.75 17.5 32.75H32.5C33.8789 32.75 35 31.6289 35 30.25V25.25Z" fill="#3F8CFF"/>
</g>
<defs>
<filter id="filter0_dd_1232_11755" x="0" y="0" width="50" height="50" filterUnits="userSpaceOnUse" color-interpolation-filters="sRGB">
<feFlood flood-opacity="0" result="BackgroundImageFix"/>
<feColorMatrix in="SourceAlpha" type="matrix" values="0 0 0 0 0 0 0 0 0 0 0 0 0 0 0 0 0 0 127 0" result="hardAlpha"/>
<feOffset dy="1"/>
<feGaussianBlur stdDeviation="1.5"/>
<feColorMatrix type="matrix" values="0 0 0 0 0 0 0 0 0 0 0 0 0 0 0 0 0 0 0.1 0"/>
<feBlend mode="normal" in2="BackgroundImageFix" result="effect1_dropShadow_1232_11755"/>
<feColorMatrix in="SourceAlpha" type="matrix" values="0 0 0 0 0 0 0 0 0 0 0 0 0 0 0 0 0 0 127 0" result="hardAlpha"/>
<feOffset dy="1"/>
<feGaussianBlur stdDeviation="1"/>
<feColorMatrix type="matrix" values="0 0 0 0 0 0 0 0 0 0 0 0 0 0 0 0 0 0 0.1 0"/>
<feBlend mode="normal" in2="effect1_dropShadow_1232_11755" result="effect2_dropShadow_1232_11755"/>
<feBlend mode="normal" in="SourceGraphic" in2="effect2_dropShadow_1232_11755" result="shape"/>
</filter>
</defs>
</svg>
