<svg width="20" height="20" viewBox="0 0 20 20" fill="none" xmlns="http://www.w3.org/2000/svg">
<g clip-path="url(#clip0_1232_11405)">
<mask id="mask0_1232_11405" style="mask-type:luminance" maskUnits="userSpaceOnUse" x="0" y="0" width="20" height="20">
<path d="M20 0H0V20H20V0Z" fill="white"/>
</mask>
<g mask="url(#mask0_1232_11405)">
<path d="M4.50825 18.1245C3.57492 18.1245 2.98325 17.8078 2.60825 17.4328C1.87492 16.6995 1.35825 15.1412 3.00825 11.8328L3.73325 10.3912C3.82492 10.1995 3.82492 9.79949 3.73325 9.60783L3.00825 8.16613C1.34992 4.8578 1.87492 3.29114 2.60825 2.56614C3.33325 1.8328 4.89992 1.3078 8.19992 2.96614L15.3332 6.5328C17.1082 7.41614 18.0832 8.64949 18.0832 9.99949C18.0832 11.3495 17.1082 12.5828 15.3415 13.4662L8.20825 17.0328C6.59158 17.8412 5.39158 18.1245 4.50825 18.1245ZM4.50825 3.12447C4.05825 3.12447 3.70825 3.2328 3.49158 3.44947C2.88325 4.04947 3.12492 5.6078 4.12492 7.59947L4.84992 9.04949C5.11658 9.59116 5.11658 10.4078 4.84992 10.9495L4.12492 12.3912C3.12492 14.3912 2.88325 15.9412 3.49158 16.5412C4.09158 17.1495 5.64992 16.9078 7.64992 15.9078L14.7832 12.3412C16.0915 11.6912 16.8332 10.8328 16.8332 9.99116C16.8332 9.14949 16.0832 8.29114 14.7749 7.64114L7.64158 4.0828C6.37492 3.44947 5.28325 3.12447 4.50825 3.12447Z" fill="#F36969"/>
<path d="M9.03317 10.625H4.5332C4.19154 10.625 3.9082 10.3417 3.9082 10C3.9082 9.65833 4.19154 9.375 4.5332 9.375H9.03317C9.37484 9.375 9.65817 9.65833 9.65817 10C9.65817 10.3417 9.37484 10.625 9.03317 10.625Z" fill="#F36969"/>
</g>
</g>
<defs>
<clipPath id="clip0_1232_11405">
<rect width="20" height="20" fill="white"/>
</clipPath>
</defs>
</svg>
